<?xml version="1.0" encoding="UTF-8" standalone="no"?>
<svg
   xmlns:dc="http://purl.org/dc/elements/1.1/"
   xmlns:cc="http://creativecommons.org/ns#"
   xmlns:rdf="http://www.w3.org/1999/02/22-rdf-syntax-ns#"
   xmlns:svg="http://www.w3.org/2000/svg"
   xmlns="http://www.w3.org/2000/svg"
   id="SVGRoot"
   version="1.1"
   viewBox="0 0 170 200"
   height="200"
   width="170">
  <defs
     id="defs323" />
  <metadata
     id="metadata326">
    <rdf:RDF>
      <cc:Work
         rdf:about="">
        <dc:format>image/svg+xml</dc:format>
        <dc:type
           rdf:resource="http://purl.org/dc/dcmitype/StillImage" />
        <dc:title></dc:title>
      </cc:Work>
    </rdf:RDF>
  </metadata>
  <g
     transform="translate(0,-600)"
     id="layer1">
    <g
       transform="matrix(-0.00476632,0.2730628,-0.2730628,-0.00476632,126.9502,592.695)"
       id="g313">
      <path
         style="fill:none;stroke:#000000;stroke-width:0.5"
         d="m 763.4,418.71 0.24,-35.5"
         id="path6" />
      <path
         style="fill:none;stroke:#000000;stroke-width:0.5"
         d="M 739.82,444.02 763.4,418.71"
         id="path8" />
      <path
         style="fill:none;stroke:#000000;stroke-width:0.5"
         d="m 540.07,274 -3.5,-130.16"
         id="path10" />
      <path
         style="fill:none;stroke:#000000;stroke-width:0.5"
         d="M 579.11,310.23 540.07,274"
         id="path12" />
      <path
         style="fill:none;stroke:#000000;stroke-width:0.5"
         d="M 763.64,383.21 579.11,310.23"
         id="path14" />
      <path
         style="fill:none;stroke:#000000;stroke-width:0.5"
         d="m 624.39,435.55 115.43,8.47"
         id="path16" />
      <path
         style="fill:none;stroke:#000000;stroke-width:0.5"
         d="M 370.64,456.16 624.39,435.55"
         id="path18" />
      <path
         style="fill:none;stroke:#000000;stroke-width:0.5"
         d="m 246.84,417.97 123.8,38.19"
         id="path20" />
      <path
         style="fill:none;stroke:#000000;stroke-width:0.5"
         d="m 150.05,419.48 96.79,-1.51"
         id="path22" />
      <path
         style="fill:none;stroke:#000000;stroke-width:0.5"
         d="m 80.67,151.49 2.89,130.69"
         id="path26" />
      <path
         style="fill:none;stroke:#000000;stroke-width:0.5"
         d="m 83.56,282.18 -47.2,96.46"
         id="path28" />
      <path
         style="fill:none;stroke:#000000;stroke-width:0.5"
         d="M 36.36,378.64 63.28,403.2"
         id="path30" />
      <path
         style="fill:none;stroke:#000000;stroke-width:0.5"
         d="m 63.28,403.2 86.55,-3.02"
         id="path32" />
      <path
         style="fill:none;stroke:#000000;stroke-width:0.5"
         d="m 149.83,400.18 0.22,19.3"
         id="path34" />
      <path
         style="fill:none;stroke:#000000;stroke-width:0.5"
         d="m 122.29,186.38 -11.12,0.19"
         id="path36" />
      <path
         style="fill:none;stroke:#000000;stroke-width:0.5"
         d="m 122.29,186.38 11.14,127.59"
         id="path38" />
      <path
         style="fill:none;stroke:#000000;stroke-width:0.5"
         d="M 100.64,289.42 111.17,186.57"
         id="path40" />
      <path
         style="fill:none;stroke:#000000;stroke-width:0.5"
         d="m 74.42,342.85 26.22,-53.43"
         id="path42" />
      <path
         style="fill:none;stroke:#000000;stroke-width:0.5"
         d="M 95.22,362.12 74.42,342.85"
         id="path44" />
      <path
         style="fill:none;stroke:#000000;stroke-width:0.5"
         d="m 133.43,313.97 -24.04,46.2"
         id="path46" />
      <path
         style="fill:none;stroke:#000000;stroke-width:0.5"
         d="m 95.22,362.12 14.17,-1.95"
         id="path48" />
      <path
         style="fill:none;stroke:#000000;stroke-width:0.5"
         d="m 182.2,352.74 0.19,-3.56 m 0,0 0.59,-3.51 m 0,0 0.97,-3.43 m 0,0 1.34,-3.3 m 0,0 1.69,-3.13 m 0,0 2.03,-2.92 m 0,0 2.34,-2.69 m 0,0 2.62,-2.41 m 0,0 2.87,-2.11 m 0,0 3.08,-1.78 m 0,0 3.27,-1.43 m 0,0 3.39,-1.06 m 0,0 3.5,-0.69 m 0,0 3.55,-0.29 m 0,0 3.56,0.1 m 0,0 3.52,0.49 m 0,0 3.46,0.87 m 0,0 3.33,1.25 m 0,0 3.18,1.61 m 0,0 2.98,1.95 m 0,0 2.75,2.26 m 0,0 2.48,2.55 m 0,0 2.19,2.81 m 0,0 1.86,3.04 m 0,0 1.52,3.22 m 0,0 1.16,3.36 m 0,0 0.78,3.48 m 0,0 0.39,3.54 m 0,0 v 3.56 m 0,0 -0.39,3.54 m 0,0 -0.78,3.47 m 0,0 -1.16,3.37 m 0,0 -1.52,3.22 m 0,0 -1.86,3.03 m 0,0 -2.19,2.81 m 0,0 -2.48,2.56 m 0,0 -2.75,2.26 m 0,0 -2.98,1.95 m 0,0 -3.18,1.61 m 0,0 -3.33,1.24 m 0,0 -3.46,0.88 m 0,0 -3.52,0.49 m 0,0 -3.56,0.1 m 0,0 -3.55,-0.3 m 0,0 -3.5,-0.68 m 0,0 -3.39,-1.06 m 0,0 -3.27,-1.43 m 0,0 -3.08,-1.78 m 0,0 -2.87,-2.11 m 0,0 -2.62,-2.42 m 0,0 -2.34,-2.68 m 0,0 -2.03,-2.93 m 0,0 -1.69,-3.13 m 0,0 -1.34,-3.3 m 0,0 -0.97,-3.42 m 0,0 -0.59,-3.52 m 0,0 -0.19,-3.55"
         id="path50" />
      <path
         style="fill:none;stroke:#000000;stroke-width:0.5"
         d="m 754.16491,-138.21913 1.4169,35.47252"
         id="path6-4" />
      <path
         style="fill:none;stroke:#000000;stroke-width:0.5"
         d="m 729.75871,-162.73343 24.4062,24.5143"
         id="path8-5" />
      <path
         style="fill:none;stroke:#000000;stroke-width:0.5"
         d="m 535.75558,13.815851 0.8174,130.204489"
         id="path10-8" />
      <path
         style="fill:none;stroke:#000000;stroke-width:0.5"
         d="m 573.57291,-23.688609 -37.81733,37.50446"
         id="path12-0" />
      <path
         style="fill:none;stroke:#000000;stroke-width:0.5"
         d="m 755.58181,-102.74661 -182.0089,79.058001"
         id="path14-7" />
      <path
         style="fill:none;stroke:#000000;stroke-width:0.5"
         d="m 614.67301,-150.44097 115.0857,-12.29246"
         id="path16-6" />
      <path
         style="fill:none;stroke:#000000;stroke-width:0.5"
         d="m 360.37919,-162.62651 254.29382,12.18554"
         id="path18-7" />
      <path
         style="fill:none;stroke:#000000;stroke-width:0.5"
         d="m 237.91344,-120.35292 122.46575,-42.27359"
         id="path20-8" />
      <path
         style="fill:none;stroke:#000000;stroke-width:0.5"
         d="m 141.1266,-118.65298 96.78684,-1.69994"
         id="path22-4" />
      <path
         style="fill:none;stroke:#000000;stroke-width:0.5"
         d="M 80.67,151.49 79.225362,20.776016"
         id="path26-6" />
      <path
         style="fill:none;stroke:#000000;stroke-width:0.5"
         d="M 79.225362,20.776016 28.853164,-74.066026"
         id="path28-6" />
      <path
         style="fill:none;stroke:#000000;stroke-width:0.5"
         d="M 28.853164,-74.066026 54.944073,-99.505052"
         id="path30-4" />
      <path
         style="fill:none;stroke:#000000;stroke-width:0.5"
         d="m 54.944073,-99.505052 86.602537,0.14915"
         id="path32-6" />
      <path
         style="fill:none;stroke:#000000;stroke-width:0.5"
         d="M 141.54661,-99.356302 141.1266,-118.65298"
         id="path34-5" />
      <path
         style="fill:none;stroke:#000000;stroke-width:0.5"
         d="m 121.11034,115.23924 -11.12021,0.17868"
         id="path36-5" />
      <path
         style="fill:none;stroke:#000000;stroke-width:0.5"
         d="m 121.11034,115.23924 6.9036,-127.889194"
         id="path38-6" />
      <path
         style="fill:none;stroke:#000000;stroke-width:0.5"
         d="M 96.055939,12.973707 109.99014,115.41802"
         id="path40-1" />
      <path
         style="fill:none;stroke:#000000;stroke-width:0.5"
         d="M 68.078864,-39.557588 96.055939,12.973707"
         id="path42-4" />
      <path
         style="fill:none;stroke:#000000;stroke-width:0.5"
         d="M 88.228527,-59.506623 68.078864,-39.557588"
         id="path44-8" />
      <path
         style="fill:none;stroke:#000000;stroke-width:0.5"
         d="M 128.01394,-12.649954 102.45539,-58.027503"
         id="path46-5" />
      <path
         style="fill:none;stroke:#000000;stroke-width:0.5"
         d="m 88.228527,-59.506623 14.226863,1.47912"
         id="path48-3" />
      <path
         style="fill:none;stroke:#000000;stroke-width:0.5"
         d="m 175.47171,-53.015616 0.30792,3.551743 m 0,0 0.70605,3.488509 m 0,0 1.08319,3.395954 m 0,0 1.44867,3.253757 m 0,0 1.79285,3.072247 m 0,0 2.12569,2.85109 m 0,0 2.4279,2.610937 m 0,0 2.69848,2.321809 m 0,0 2.93837,2.013684 m 0,0 3.13731,1.676904 m 0,0 3.31561,1.320796 m 0,0 3.42331,0.947022 m 0,0 3.52095,0.573577 m 0,0 3.55765,0.172143 m 0,0 3.55474,-0.217978 m 0,0 3.50181,-0.606435 m 0,0 3.42925,-0.984239 m 0,0 3.28673,-1.35972 m 0,0 3.12488,-1.714547 m 0,0 2.9137,-2.047732 m 0,0 2.67357,-2.349933 m 0,0 2.39408,-2.630823 m 0,0 2.09562,-2.881064 m 0,0 1.7582,-3.1 m 0,0 1.4124,-3.268625 m 0,0 1.04796,-3.396612 m 0,0 0.6642,-3.503948 m 0,0 0.27242,-3.550984 m 0,0 -0.11801,-3.558043 m 0,0 -0.50715,-3.525124 m 0,0 -0.89463,-3.442231 m 0,0 -1.27108,-3.329686 m 0,0 -1.62593,-3.167835 m 0,0 -1.95943,-2.966664 m 0,0 -2.28197,-2.735846 m 0,0 -2.56352,-2.476368 m 0,0 -2.8234,-2.167581 m 0,0 -3.04303,-1.850126 m 0,0 -3.23163,-1.503681 m 0,0 -3.36928,-1.128912 m 0,0 -3.48727,-0.764799 m 0,0 -3.53432,-0.373024 m 0,0 -3.56134,0.01809 m 0,0 -3.53812,0.417535 m 0,0 -3.47553,0.795669 m 0,0 -3.35299,1.171813 m 0,0 -3.22079,1.537631 m 0,0 -3.01929,1.88114 m 0,0 -2.79846,2.203993 m 0,0 -2.53832,2.505537 m 0,0 -2.24986,2.756109 m 0,0 -1.93174,2.995694 m 0,0 -1.5853,3.184312 m 0,0 -1.22985,3.342616 m 0,0 -0.85609,3.450279 m 0,0 -0.47295,3.537627 m 0,0 -0.0721,3.55435"
         id="path50-9" />
    </g>
  </g>
</svg>
